<svg xmlns="http://www.w3.org/2000/svg" width="70" height="42" viewBox="0 0 70 42">
  <path fill="#FFF" d="M54.407767,0 L5.24271845,0 C2.34605825,0 0,2.36062136 0,5.24271845 L0,36.6990291 C0,39.5982524 2.36330097,41.9417476 5.24271845,41.9417476 L54.407767,41.9417476 C57.2801942,41.9417476 59.6504854,39.6081553 59.6504854,36.6990291 L59.6504854,5.24271845 C59.6504854,2.36574757 57.3137476,0 54.407767,0 Z M53.6735534,3.49514563 C52.6024078,4.56058252 34.1688932,22.8970485 33.5324272,23.5301359 C32.5421359,24.5204272 31.2256311,25.0656699 29.8252427,25.0656699 C28.4248544,25.0656699 27.1083495,24.5203107 26.1147961,23.5268738 C25.6867573,23.1010485 7.45666019,4.96706796 5.97693204,3.49514563 L53.6735534,3.49514563 Z M3.49514563,35.9876505 L3.49514563,5.95631068 L18.5986019,20.9801942 L3.49514563,35.9876505 Z M5.97914563,38.4466019 L21.0766602,23.4450874 L23.6466408,26.0015534 C25.2970485,27.6519612 27.491301,28.5608155 29.8252427,28.5608155 C32.1591845,28.5608155 34.3534369,27.6519612 36.0005825,26.0048155 L38.5738252,23.4450874 L53.6713398,38.4466019 L5.97914563,38.4466019 Z M56.1553398,35.9876505 L41.0518835,20.9801942 L56.1553398,5.95631068 L56.1553398,35.9876505 Z" transform="translate(5)"/>
</svg>
