<svg xmlns="http://www.w3.org/2000/svg" width="70" height="70" viewBox="0 0 70 70">
  <g fill="#FFF" transform="translate(9 5)">
    <path d="M36.1719612,39.4118447 C42.5194951,29.4514951 41.7215534,30.6941359 41.904466,30.4344466 C44.2154563,27.1748738 45.4368932,23.3384854 45.4368932,19.3398058 C45.4368932,8.73553398 36.8317282,0 26.2135922,0 C15.6300583,0 6.99029126,8.71829126 6.99029126,19.3398058 C6.99029126,23.3359223 8.23735922,27.2727379 10.6240777,30.576233 L16.2549903,39.4119612 C10.2346019,40.3371262 0,43.0942136 0,49.1650485 C0,51.3780583 1.44442718,54.5318447 8.3256699,56.9893981 C13.1305631,58.7053981 19.4832233,59.6504854 26.2135922,59.6504854 C38.7990291,59.6504854 52.4271845,56.1003495 52.4271845,49.1650485 C52.4271845,43.093165 42.2045825,40.3389903 36.1719612,39.4118447 Z M13.5435728,28.6537864 C13.5243495,28.6237282 13.5043107,28.5943689 13.4833398,28.5654757 C11.4972816,25.8332039 10.4854369,22.595068 10.4854369,19.3398058 C10.4854369,10.5998447 17.5230291,3.49514563 26.2135922,3.49514563 C34.8860971,3.49514563 41.9417476,10.6029903 41.9417476,19.3398058 C41.9417476,22.6003107 40.9490097,25.7285825 39.0703689,28.3888544 C38.9020194,28.6109126 39.7803495,27.2464078 26.2135922,48.5346408 L13.5435728,28.6537864 Z M26.2135922,56.1553398 C12.4667184,56.1553398 3.49514563,52.1146019 3.49514563,49.1650485 C3.49514563,47.1826019 8.10500971,43.9229126 18.3201553,42.6523107 L24.7398058,52.7256699 C25.0606602,53.2292039 25.6163883,53.5339806 26.2134757,53.5339806 C26.8105631,53.5339806 27.3664078,53.2290874 27.6871456,52.7256699 L34.1066796,42.6523107 C44.3220583,43.9229126 48.9320388,47.1826019 48.9320388,49.1650485 C48.9320388,52.0895534 40.0412039,56.1553398 26.2135922,56.1553398 Z"/>
    <path d="M26.2135922,10.6019417 C21.395534,10.6019417 17.4757282,14.5217476 17.4757282,19.3398058 C17.4757282,24.1578641 21.395534,28.0776699 26.2135922,28.0776699 C31.0316505,28.0776699 34.9514563,24.1578641 34.9514563,19.3398058 C34.9514563,14.5217476 31.0316505,10.6019417 26.2135922,10.6019417 Z M26.2135922,24.5825243 C23.3227573,24.5825243 20.9708738,22.2306408 20.9708738,19.3398058 C20.9708738,16.4489709 23.3227573,14.0970874 26.2135922,14.0970874 C29.1044272,14.0970874 31.4563107,16.4489709 31.4563107,19.3398058 C31.4563107,22.2306408 29.1044272,24.5825243 26.2135922,24.5825243 Z"/>
  </g>
</svg>
