<svg xmlns="http://www.w3.org/2000/svg" width="72" height="72" viewBox="0 0 72 72">
  <path fill="#FFF" d="M10.5,71.6800003 L33.8800001,71.6800003 L33.8800001,46.2000002 L25.4800001,46.2000002 L25.4800001,37.8000002 L33.8800001,37.8000002 L33.8800001,27.3000001 C33.8800001,21.5102344 38.5902345,16.8000001 44.3800002,16.8000001 L54.8800002,16.8000001 L54.8800002,25.2000001 L46.4800002,25.2000001 C44.1639845,25.2000001 42.2800002,27.0839845 42.2800002,29.4000001 L42.2800002,37.8000002 L54.5010159,37.8000002 L53.1010159,46.2000002 L42.2800002,46.2000002 L42.2800002,71.6800003 L61.1800003,71.6800003 C66.9697659,71.6800003 71.6800003,66.9697659 71.6800003,61.1800003 L71.6800003,10.5 C71.6800003,4.71023436 66.9697659,0 61.1800003,0 L10.5,0 C4.71023436,0 0,4.71023436 0,10.5 L0,61.1800003 C0,66.9697659 4.71023436,71.6800003 10.5,71.6800003 Z M4.20000002,10.5 C4.20000002,7.02625003 7.02625003,4.20000002 10.5,4.20000002 L61.1800003,4.20000002 C64.6537503,4.20000002 67.4800003,7.02625003 67.4800003,10.5 L67.4800003,61.1800003 C67.4800003,64.6537503 64.6537503,67.4800003 61.1800003,67.4800003 L46.4800002,67.4800003 L46.4800002,50.4000002 L56.6589846,50.4000002 L59.4589846,33.6000001 L46.4800002,33.6000001 L46.4800002,29.4000001 L59.0800003,29.4000001 L59.0800003,12.6000001 L44.3800002,12.6000001 C36.2742188,12.6000001 29.6800001,19.1942188 29.6800001,27.3000001 L29.6800001,33.6000001 L21.2800001,33.6000001 L21.2800001,50.4000002 L29.6800001,50.4000002 L29.6800001,67.4800003 L10.5,67.4800003 C7.02625003,67.4800003 4.20000002,64.6537503 4.20000002,61.1800003 L4.20000002,10.5 Z"/>
</svg>
