<svg xmlns="http://www.w3.org/2000/svg" width="72" height="72" viewBox="0 0 72 72">
  <g fill="none" fill-rule="evenodd">
    <path fill="#FFF" fill-rule="nonzero" d="M8.45785417,38 L0.564679098,38 L0.564679098,12.6666667 L8.45785417,12.6666667 L8.45785417,38 Z M9.24540992,4.59543237 C9.24540992,2.05885883 7.17521322,0 4.62490727,0 C2.06491098,0 0,2.05885883 0,4.59543237 C0,7.13288158 2.06491098,9.19174041 4.62490727,9.19174041 C7.17521322,9.19174041 9.24540992,7.13288158 9.24540992,4.59543237 Z M38,24.0626382 C38,17.262099 36.5548266,12.2182891 28.5634273,12.2182891 C24.7234328,12.2182891 22.1458179,14.1273968 21.0935413,16.1126936 L21.0860534,16.1126936 L21.0860534,12.6666667 L13.4183976,12.6666667 L13.4183976,38 L21.0860534,38 L21.0860534,25.4217828 C21.0860534,22.1276964 21.9295484,18.9365091 26.0369065,18.9365091 C30.0883254,18.9365091 30.2195846,22.7034937 30.2195846,25.6310841 L30.2195846,38 L38,38 L38,24.0626382 Z" transform="translate(17 17)"/>
    <path fill="#FFF" fill-rule="nonzero" d="M10.5,71.6800003 L61.1800003,71.6800003 C66.9697659,71.6800003 71.6800003,66.9697659 71.6800003,61.1800003 L71.6800003,10.5 C71.6800003,4.71023436 66.9697659,0 61.1800003,0 L10.5,0 C4.71023436,0 0,4.71023436 0,10.5 L0,61.1800003 C0,66.9697659 4.71023436,71.6800003 10.5,71.6800003 Z M4.20000002,10.5 C4.20000002,7.02625003 7.02625003,4.20000002 10.5,4.20000002 L61.1800003,4.20000002 C64.6537503,4.20000002 67.4800003,7.02625003 67.4800003,10.5 L67.4800003,61.1800003 C67.4800003,64.6537503 64.6537503,67.4800003 61.1800003,67.4800003 L10.5,67.4800003 C7.02625003,67.4800003 4.20000002,64.6537503 4.20000002,61.1800003 L4.20000002,10.5 Z"/>
  </g>
</svg>
