<svg xmlns="http://www.w3.org/2000/svg" width="72" height="72" viewBox="0 0 72 72">
  <g fill="#FFF">
    <path d="M10.5,71.6800003 L61.1800003,71.6800003 C66.9697659,71.6800003 71.6800003,66.9697659 71.6800003,61.1800003 L71.6800003,10.5 C71.6800003,4.71023436 66.9697659,0 61.1800003,0 L10.5,0 C4.71023436,0 0,4.71023436 0,10.5 L0,61.1800003 C0,66.9697659 4.71023436,71.6800003 10.5,71.6800003 Z M4.20000002,10.5 C4.20000002,7.02625003 7.02625003,4.20000002 10.5,4.20000002 L61.1800003,4.20000002 C64.6537503,4.20000002 67.4800003,7.02625003 67.4800003,10.5 L67.4800003,61.1800003 C67.4800003,64.6537503 64.6537503,67.4800003 61.1800003,67.4800003 L10.5,67.4800003 C7.02625003,67.4800003 4.20000002,64.6537503 4.20000002,61.1800003 L4.20000002,10.5 Z"/>
    <path d="M35.8400002 54.7400002C46.2612502 54.7400002 54.7400002 46.2612502 54.7400002 35.8400002 54.7400002 25.4187501 46.2612502 16.9400001 35.8400002 16.9400001 25.4187501 16.9400001 16.9400001 25.4187501 16.9400001 35.8400002 16.9400001 46.2612502 25.4187501 54.7400002 35.8400002 54.7400002zM35.8400002 21.1400001C43.9457815 21.1400001 50.5400002 27.7342188 50.5400002 35.8400002 50.5400002 43.9457815 43.9457815 50.5400002 35.8400002 50.5400002 27.7342188 50.5400002 21.1400001 43.9457815 21.1400001 35.8400002 21.1400001 27.7342188 27.7342188 21.1400001 35.8400002 21.1400001zM56.8400002 21.1400001C60.3137503 21.1400001 63.1400003 18.3137501 63.1400003 14.8400001 63.1400003 11.36625 60.3137503 8.54000004 56.8400002 8.54000004 53.3662502 8.54000004 50.5400002 11.36625 50.5400002 14.8400001 50.5400002 18.3137501 53.3662502 21.1400001 56.8400002 21.1400001zM56.8400002 12.7400001C57.9977346 12.7400001 58.9400003 13.6822657 58.9400003 14.8400001 58.9400003 15.9977344 57.9977346 16.9400001 56.8400002 16.9400001 55.6822659 16.9400001 54.7400002 15.9977344 54.7400002 14.8400001 54.7400002 13.6822657 55.6822659 12.7400001 56.8400002 12.7400001z"/>
  </g>
</svg>
