<svg xmlns="http://www.w3.org/2000/svg" width="72" height="72" viewBox="0 0 72 72">
  <path fill="#FFF" d="M71.6800003,7.83507819 C67.1710159,8.04289069 67.2694534,8.02593753 66.7597659,8.06859371 L69.4301566,0.442421842 C69.4301566,0.442421842 61.0946878,3.50875001 58.9815628,4.05726568 C53.4318752,-0.930781324 45.1828127,-1.15117184 39.2853127,2.47351567 C34.4558595,5.44250002 31.863672,10.5410157 32.7282815,16.5003126 C23.3291408,15.1960157 15.4098437,10.740625 9.15742188,3.22984369 L7.17992187,0.854765664 L5.70226568,3.56835936 C3.83468752,6.99726569 3.21453133,10.9178125 3.95554686,14.6075782 C4.25960936,16.1213282 4.77640634,17.5650782 5.49226568,18.9169532 L3.79585936,18.2596094 L3.59460936,21.0940626 C3.39062501,23.9733594 4.34929686,27.3344533 6.15945319,30.0841408 C6.66914069,30.8585158 7.32539069,31.7089065 8.15718753,32.5478126 L7.28054687,32.4132815 L8.35023438,35.661172 C9.75625004,39.9284377 12.6765626,43.229922 16.4664064,45.0652345 C12.6814844,46.6714065 9.62390636,47.6962502 4.59812502,49.3494534 L-7.95807867e-15,50.8610159 L4.24703134,53.1830471 C5.86632818,54.0684377 11.5882814,57.0253909 17.2418751,57.9124221 C29.8090626,59.8833596 43.9583595,58.2782816 53.4838284,49.6994534 C61.5070316,42.4735939 64.1396878,32.1950783 63.5928128,21.4987501 C63.5102346,19.8794532 63.9537503,18.3339844 64.8418753,17.1478126 C66.6208596,14.7727344 71.6690628,7.85093753 71.6800003,7.83507819 Z M61.4835159,14.6321876 C60.0085939,16.6014844 59.2697659,19.1165626 59.4021096,21.7131251 C59.9539066,32.502422 57.0182816,40.8696095 50.6761721,46.581172 C43.2676565,53.2535939 31.3178908,55.8725784 17.8921094,53.7665627 C15.4607032,53.3853909 12.9478126,52.5317189 10.8680469,51.6791409 C15.0817187,50.2293752 18.3356251,48.9371095 23.5905469,46.449922 L30.9263283,42.9778127 L22.8271094,42.4593752 C18.9475782,42.2110939 15.7171876,40.3309377 13.7314844,37.2782815 C14.7858594,37.2170315 15.8025001,37.0464065 16.8147657,36.7642188 L24.5393751,34.6128126 L16.7502344,32.7053126 C12.9653126,31.7783595 10.8078907,29.5137501 9.66437504,27.7768751 C8.9135157,26.635547 8.42296872,25.4663283 8.12875003,24.3884376 C8.90968754,24.5978908 9.82023438,24.7471876 11.2885937,24.8926564 L18.4980469,25.6057814 L12.7859376,21.1498438 C8.67015636,17.9396876 7.02078135,13.1167969 8.22992188,8.4803907 C21.0749219,21.8033594 36.1566408,20.8020314 37.6747658,21.1542188 C37.3406252,17.9085157 37.3318752,17.9008594 37.2443752,17.5918751 C35.3002345,10.7192969 39.5609377,7.22968753 41.4826565,6.04843753 C45.4967189,3.58148436 51.8683596,3.20960935 56.2816409,7.27398437 C57.2348439,8.15117187 58.5238284,8.49625004 59.7302346,8.19656253 C60.8130471,7.92750003 61.7017189,7.64257819 62.5717971,7.33250003 L60.7605471,12.5048437 L63.0727346,12.5064844 C62.6363284,13.0916407 62.1129689,13.7921876 61.4835159,14.6321876 Z" transform="translate(0 7)"/>
</svg>
